{"title":"Radio.2003.DVDRiP.XviD.OPTIONAL-MULTISUB-Zen_Bud","uid":5935863,"size":1489844486,"categoryP":"video","categoryS":"movies","magnet":"?xt=urn:btih:7aa31b5d2bcf74cdc75beed85b4efab2c1cb598f&amp;dn=+Radio.2003.DVDRiP.XviD.OPTIONAL-MULTISUB-Zen_Bud&amp;tr=udp%3A%2F%2Ftracker.openbittorrent.com%3A80&amp;tr=udp%3A%2F%2Fopen.demonii.com%3A1337&amp;tr=udp%3A%2F%2Ftracker.coppersurfer.tk%3A6969&amp;tr=udp%3A%2F%2Fexodus.desync.com%3A6969","seeders":1,"leechers":0,"uploader":"Zen_Bud","files":-1,"time":1288947021,"description":"******** Radio.2003.DVDRiP.XviD.OPTIONAL-MULTISUB-Zen_Bud *********\n\nFormat                           : AVI\nFile size                        : 1.37 GiB\nDuration                         : 1h 44mn\nOverall bit rate                 : 1 872 Kbps\n\nVideo\n\nFormat                           : MPEG-4 Visual\nCodec ID/Hint                    : XviD\nDuration                         : 1h 44mn\nBit rate                         : 1 731 Kbps\nWidth                            : 720 pixels\nHeight                           : 554 pixels\nDisplay aspect ratio             : 16:9\nStream size                      : 1.27 GiB (92%)\nWriting library                  : XviD 1.1.2 (UTC 2006-11-01)\n\nAudio\n\nFormat                           : MPEG Audio\nCodec ID/Hint                    : MP3\nDuration                         : 1h 44mn\nBit rate                         : 128 Kbps\nChannel(s)                       : 2 channels\nSampling rate                    : 48.0 KHz\nStream size                      : 96.0 MiB (7%)\nLanguage                         : English\n\nText #1\nLanguage                         : Swedish\n\nText #2\nLanguage                         : Norwegian\n\nText #3\nLanguage                         : Danish\n\nText #4\nLanguage                         : Finnish\n\nThe true story of a high school coach and the developmentally challenged man whom he took under his wing. ","torrent":{"xt":"urn:btih:7aa31b5d2bcf74cdc75beed85b4efab2c1cb598f","amp;dn":"+Radio.2003.DVDRiP.XviD.OPTIONAL-MULTISUB-Zen_Bud","amp;tr":["udp%3A%2F%2Ftracker.openbittorrent.com%3A80","udp%3A%2F%2Fopen.demonii.com%3A1337","udp%3A%2F%2Ftracker.coppersurfer.tk%3A6969","udp%3A%2F%2Fexodus.desync.com%3A6969"],"infoHash":"7aa31b5d2bcf74cdc75beed85b4efab2c1cb598f","infoHashBuffer":{"type":"Buffer","data":[122,163,27,93,43,207,116,205,199,91,238,216,91,78,250,178,193,203,89,143]},"announce":[],"urlList":[]}}